PathFileType	4	(X/Y/Z)	C:/Users/beibeiliu/ov580/test_trc\sequence.10_training_dense_right.trc
DataRate	CameraRate	NumFrames	NumMarkers	Units	OrigDataRate	OrigDataStartFrame	OrigNumFrames
120	120	10	19	mm	120	55	82
Frame#	Time	ThumbCMC			ThumbMCP			ThumbIP			ThumbTip			IndexMCP			IndexPIP			IndexTip			MiddleMCP			MiddlePIP			MiddleTip			RingMCP			RingPIP			RingTip			PinkyMCP			PinkyPIP			PinkyTip			BackHand1			BackHand2			BackHand3	
		X0	Y0	Z0	X1	Y1	Z1	X2	Y2	Z2	X3	Y3	Z3	X4	Y4	Z4	X5	Y5	Z5	X6	Y6	Z6	X7	Y7	Z7	X8	Y8	Z8	X9	Y9	Z9	X10	Y10	Z10	X11	Y11	Z11	X12	Y12	Z12	X13	Y13	Z13	X14	Y14	Z14	X15	Y15	Z15	X16	Y16	Z16	X17	Y17	Z17	X18	Y18	Z18	
54	0.45	107.916	58.6536	33.2307	90.9325	82.5464	23.3362	68.9409	91.7614	11.7991	48.7294	95.6874	9.12147	65.4247	59.8909	-21.4354	51.1103	74.6212	-33.9071	37.0097	87.1628	-40.2681	47.3281	62.2828	-4.7129	42.3373	85.3817	14.8519	63.7162	78.6798	33.0178	39.2795	58.582	14.2478	42.572	74.8173	33.4426	67.0823	65.8205	43.4998	34.5723	49.3242	29.2484	45.2574	65.4771	42.8164	69.9878	53.3858	48.5163	72.7076	19.9253	24.1016	91.1101	11.3669	46.0846	100.547	28.3251	19.159	
55	0.458333	110.495	53.6776	29.255	94.5701	75.505	12.1723	78.9206	85.839	1.5057	54.6424	87.2186	-6.4771	77.9051	49.7062	-28.2086	63.0115	59.8198	-42.8891	51.1876	71.7216	-55.0886	55.3967	53.6313	-13.9248	48.687	79.5511	-1.99743	69.1536	72.7436	23.9862	43.5817	49.8248	5.49855	52.3648	74.9856	18.2345	69.3793	63.9287	37.357	39.6301	44.292	18.9351	46.6093	65.3563	32.7986	70.8354	57.6278	38.2338	74.248	14.0961	22.726	91.3974	10.7525	47.5952	105.645	24.3113	19.681	
56	0.466667	114.984	49.105	25.4123	99.4861	69.8568	5.26448	83.1501	74.28	-9.75592	62.4642	77.3671	-19.664	84.526	33.7907	-31.4668	76.5247	41.3196	-48.4419	62.0921	50.7229	-67.5597	63.4596	40.8732	-20.2869	53.0447	66.7993	-13.8925	72.0496	68.1154	13.0684	53.0316	41.0759	-3.38486	52.1627	66.8104	9.62702	70.6418	60.9438	28.8	45.9286	37.5512	10.509	48.6752	59.9226	21.5981	70.4339	52.5326	34.7746	79.013	9.12072	26.2353	94.7118	8.01411	48.2401	107.461	17.3703	22.4924	
57	0.475	119.793	45.7027	23.5535	103.352	60.0584	-3.55334	86.5543	62.8583	-21.7276	69.5201	60.6441	-27.5371	97.3209	17.4411	-31.2952	84.4837	17.8186	-51.3119	70.4688	22.6888	-70.9784	69.8832	24.4229	-22.5771	60.2469	53.483	-20.5481	74.7615	56.3073	6.42734	57.4375	25.3044	-6.05984	56.3308	52.6958	-1.32375	78.1326	53.2434	18.6279	47.8746	24.8962	6.49203	54.564	47.2713	9.14148	77.2425	45.0228	27.358	89.7766	2.46537	26.3845	98.9054	5.12875	48.5966	114.054	11.7202	25.2507	
58	0.483333	122.979	39.8174	20.5583	108.647	51.7887	-4.68823	95.5752	50.4804	-24.3637	74.3899	40.7479	-34.1076	107.873	1.56597	-27.1132	100.373	-2.32298	-51.1807	88.8679	-4.04323	-69.3515	82.9126	5.94345	-21.9258	65.4063	33.1621	-23.5884	84.1819	44.1793	1.19813	70.8478	9.10994	-10.3357	61.9591	35.5859	-4.57878	79.1167	42.777	13.4548	58.077	6.16456	5.46716	58.5463	31.1197	5.19749	78.4644	37.174	22.4405	96.774	-4.51626	32.3442	108.003	4.29491	56.8263	123.931	8.69438	30.6078	
59	0.491667	126.482	37.1005	22.1601	114.41	44.3837	-8.41971	99.8169	31.4414	-24.3311	84.7483	24.0201	-36.0822	126.768	-7.56076	-23.8732	118.496	-17.9737	-42.6104	108.384	-27.5753	-62.1473	95.7958	-7.50786	-22.3827	77.0183	14.6131	-27.0347	85.8472	31.0034	-2.41685	81.1198	-7.99425	-8.45651	69.5793	17.9563	-8.25539	81.9191	29.8368	12.9039	72.0953	-12.3551	7.48874	64.98	11.8537	2.88171	82.955	22.873	16.5242	109.875	-11.8486	31.5343	116.915	2.63965	59.3588	133.217	7.08387	35.6396	
60	0.5	130.365	41.6904	22.8704	117.328	37.4377	-5.2743	108.233	28.0039	-25.8643	94.295	13.6461	-40.1593	143.138	-11.7464	-20.2728	141.42	-21.6513	-42.3841	138.569	-32.812	-61.4938	117.348	-13.8384	-19.1721	94.2682	2.84449	-30.6991	95.4608	21.2132	0.766989	95.9943	-17.2667	-9.731	82.4625	4.21974	-9.45426	90.6252	19.8145	12.8477	88.212	-23.4058	8.04939	82.2147	1.02023	-0.159064	89.1882	14.2078	17.7299	124.016	-14.8167	36.4498	125.429	1.6356	60.3457	142.886	8.58799	35.4019	
61	0.508333	132.686	40.8154	21.8162	119.894	42.4744	-7.09039	114.453	28.2496	-28.5302	106.946	9.86087	-37.5338	160.126	0.960477	-15.8699	161.855	-14.684	-37.7994	164.687	-20.4972	-57.0376	133.04	-13.6987	-17.1789	108.23	0.808891	-31.5715	104.452	18.4417	-5.53879	118.402	-17.4347	-10.9436	98.6238	-2.36291	-14.5979	98.6035	14.3819	9.3703	108.807	-25.0836	1.22178	93.8623	-9.03507	-1.71528	104.396	11.079	18.2791	137.204	-12.7848	34.8314	133.716	2.19849	59.3657	151.225	17.924	36.7482	
62	0.516667	133.866	45.2736	23.6214	123.142	41.1997	-6.06661	122.605	27.2692	-30.0224	118.023	10.3591	-41.9457	171.263	10.6269	-13.3575	177.524	1.21741	-33.0693	185.939	-4.27575	-56.6596	148.905	-7.52266	-23.6361	123.918	1.38935	-33.938	113.038	15.3166	-4.31133	134.689	-17.1713	-10.4329	111.446	0.544564	-15.8173	109.621	13.1688	11.3264	125.829	-27.3729	1.13036	108.593	-8.16008	-4.03643	114.414	8.71511	15.8003	149.36	-6.04536	36.5063	140.227	3.55448	61.7243	154.923	21.9032	37.4619	
63	0.525	130.882	47.7931	23.1658	122.188	42.9511	-6.37259	122.762	33.5917	-29.1643	122.703	12.7202	-45.1358	175.827	24.7325	-14.2056	186.675	24.5979	-37.4958	192.619	14.2323	-57.7849	157.733	3.99282	-22.2763	133.361	5.39869	-35.7558	117	15.5168	-3.83456	145.71	-10.1288	-12.5304	119.604	-1.89367	-16.9885	113.823	10.0419	6.67545	138.795	-21.7283	-2.41536	120.54	-8.18739	-8.28194	115.952	7.78034	13.3585	159.968	-0.464352	32.7945	144.836	7.915	59.6782	156.111	31.2538	37.1954	
